<svg id="Layer_3" enable-background="new 0 0 64 64" height="512" viewBox="0 0 64 64" width="512" xmlns="http://www.w3.org/2000/svg"><g><path d="m15.586 13h-5.586c-.553 0-1 .448-1 1v6c0 .552.447 1 1 1h6c.553 0 1-.448 1-1v-5.586l1.707-1.707-1.414-1.414zm-2 2-2.586 2.586v-2.586zm1.414 4h-2.586l2.586-2.586z"/><path d="m15.586 23h-5.586c-.553 0-1 .448-1 1v6c0 .552.447 1 1 1h6c.553 0 1-.448 1-1v-5.586l1.707-1.707-1.414-1.414zm-2 2-2.586 2.586v-2.586zm1.414 4h-2.586l2.586-2.586z"/><path d="m15.586 33h-5.586c-.553 0-1 .447-1 1v6c0 .553.447 1 1 1h6c.553 0 1-.447 1-1v-5.586l1.707-1.707-1.414-1.414zm-2 2-2.586 2.586v-2.586zm1.414 4h-2.586l2.586-2.586z"/><path d="m17.293 41.293-1.707 1.707h-5.586c-.553 0-1 .447-1 1v6c0 .553.447 1 1 1h6c.553 0 1-.447 1-1v-5.586l1.707-1.707zm-3.707 3.707-2.586 2.586v-2.586zm1.414 4h-2.586l2.586-2.586z"/><path d="m21 13h18v2h-18z"/><path d="m21 19h18v2h-18z"/><path d="m21 23h18v2h-18z"/><path d="m21 29h8v2h-8z"/><path d="m21 33h8v2h-8z"/><path d="m21 39h8v2h-8z"/><path d="m62 63c.553 0 1-.447 1-1v-16c0-.553-.447-1-1-1h-9v-15c0-.552-.447-1-1-1h-3v-25c0-.552-.447-1-1-1h-11v-1c0-.552-.447-1-1-1h-22c-.553 0-1 .448-1 1v1h-11c-.553 0-1 .448-1 1v56c0 .553.447 1 1 1h19v1c0 .553.447 1 1 1zm-9-16v4h-2v-4zm-20-2v-14h6v5c0 .553.447 1 1 1h4c.553 0 1-.447 1-1v-5h6v14zm0 2v4h-2v-4zm8-16h2v4h-2zm6-26v24h-2v-21c0-.552-.447-1-1-1h-7v-2zm-32-2h20v6h-20zm-12 56v-54h10v2h-7c-.553 0-1 .448-1 1v46c0 .553.447 1 1 1h15v4zm18-13v7h-14v-44h6v1c0 .552.447 1 1 1h22c.553 0 1-.448 1-1v-1h6v20h-11c-.553 0-1 .448-1 1v15h-9c-.553 0-1 .447-1 1zm2 1h6v5c0 .553.447 1 1 1h4c.553 0 1-.447 1-1v-5h6v14h-18zm38 14h-18v-14h6v5c0 .553.447 1 1 1h4c.553 0 1-.447 1-1v-5h6z"/><path d="m55 57h4v2h-4z"/><path d="m45 41h4v2h-4z"/><path d="m35 57h4v2h-4z"/></g></svg>